Title                            : Trolljegeren
Also Known As                    : TrollHunter
Year                             : 2010
Genre                            : Adventure | Fantasy | Mystery
iMDB URL                         : http://www.imdb.com/title/tt1740707/

Complete name                    : TrollHunter.2010.BRRIP.720P.H264-ZEKTORM.mp4
Format                           : MPEG-4
Format profile                   : Base Media
Codec ID                         : isom
File size                        : 2.25 GiB
Duration                         : 1h 43mn
Overall bit rate                 : 3108 Kbps
Subtitles                        : English (Format: srt)

Video
ID                               : 1
Format                           : AVC
Format/Info                      : Advanced Video Codec
Format profile                   : High@L4.0
Format settings, CABAC           : Yes
Format settings, ReFrames        : 9 frames
Codec ID                         : avc1
Codec ID/Info                    : Advanced Video Coding
Duration                         : 1h 43mn
Bit rate mode                    : Variable
Bit rate                         : 2663 Kbps
Width                            : 1280 pixels
Height                           : 720 pixels
Display aspect ratio             : 16/9
Frame rate mode                  : Constant
Frame rate                       : 23.976 fps
Resolution                       : 24 bits
Colorimetry                      : 4:2:0
Scan type                        : Progressive
Bits/(Pixel*Frame)               : 0.121
Stream size                      : 1.92 GiB (86%)
Title                            : Video
Writing library                  : x264

Audio
ID                               : 2
Format                           : AAC
Format/Info                      : Advanced Audio Codec
Format version                   : Version 4
Format profile                   : LC
Format settings, SBR             : No
Codec ID                         : 40
Duration                         : 1h 43mn
Bit rate mode                    : Variable
Bit rate                         : 442 Kbps
Maximum bit rate                 : 581 Kbps
Channel(s)                       : 6 channels
Channel positions                : Front: L C R, Rear: L R, LFE
Sampling rate                    : 48.0 KHz
Resolution                       : 16 bits
Stream size                      : 327 MiB (14%)
Language                         : Norwegian


Screenshots:

[img]http://img827.imageshack.us/img827/7748/snapt1.png[/img]

[img]http://img69.imageshack.us/img69/9537/snapt2.png[/img]

[img]http://img856.imageshack.us/img856/2377/snapt3.png[/img]

[img]http://img856.imageshack.us/img856/586/snapt4.png[/img]
